<svg id="Capa_1" enable-background="new 0 0 510.074 510.074" height="512" viewBox="0 0 510.074 510.074" width="512" xmlns="http://www.w3.org/2000/svg"><path d="m440.616 202.224c0-35.744-37.85-57.267-68.754-42.364-9.683-24.233-36.109-34.38-58.563-27.635 5.603-20.619 1.144-4.205 19.305-71.073 6.968-25.61-7.924-52.238-33.191-59.357-25.654-7.238-51.83 8.105-58.795 33.716l-38.988 143.505-38.997-143.508c-6.965-25.612-33.15-40.949-58.789-33.715-25.261 7.117-40.154 33.742-33.199 59.355l47.273 173.985c-10.754 6.3-17.996 17.972-17.996 31.31v53.683c.212 29.673 11.713 59.629 33.522 82.628l4.396 4.636c16.205 17.088 25.189 39.469 25.3 63.019l.186 39.666 243.007-1.015-.313-65.625c-.055-11.337 4.637-22.309 12.87-30.101 14.233-13.472 22.342-32.438 22.247-52.034-.289-60.462-.521-95.754-.521-159.076zm-65.409 0c0-21.156 32.727-23.343 35.277-2.027-.141 0 .133 23.789.133 46.289 0 8.544-6.331 17-18.409 17-9.374 0-17-7.626-17-17-.001-10-.001-.188-.001-44.262zm-65.409-24.984c0-20.65 31.45-23.429 35.125-3.016-.118 0 .284 39.688.284 80.59 0 8.544-6.331 17-18.409 17-9.374 0-17-7.626-17-17zm-40.232-133.859c2.616-9.619 12.227-15.385 21.706-12.713 9.493 2.675 15.049 12.816 12.383 22.614-19.966 73.515-8.918 32.851-48.063 176.892h-36.775zm-169.97 9.903c-4.296-15.822 12.129-28.771 25.662-20.949 4.147 2.394 7.14 6.317 8.426 11.045l50.759 186.795h-36.784zm30.327 213.159c0-3.456 2.812-6.269 6.268-6.269h143.922c.317 2.778.876 5.483 1.658 8.094-8.89 21.711-29.643 36.857-54.048 36.857h-97.8zm268.344 125.101c-14.231 13.471-22.341 32.436-22.247 52.032l.171 35.607-183.005.765-.045-9.682c-.146-31.212-12.055-60.873-33.531-83.521l-4.396-4.636c-12.454-13.133-20.633-29.44-23.802-46.985 105.648 0 102.622.676 115.039-2.025 14.662 24.911 11.163 57.081-9.638 78.26l21.404 21.021c28.874-29.4 35.256-74.385 16.151-110.725 11.015-6.956 20.265-16.105 27.384-27.103 19.093 12.076 46.902 9.48 62.862-10.056 13.874 10.099 32.07 11.284 46.182 5.721l.342 71.224c.054 11.34-4.636 22.31-12.871 30.103z"/></svg>